<svg width="24" height="24" viewBox="0 0 24 24" fill="none" xmlns="http://www.w3.org/2000/svg">
<g opacity="0.3">
<path d="M15.2197 20.0303C15.5126 20.3232 15.9874 20.3232 16.2803 20.0303C16.5732 19.7374 16.5732 19.2626 16.2803 18.9697L15.2197 20.0303ZM8.25 12L7.71967 11.4697C7.42678 11.7626 7.42678 12.2374 7.71967 12.5303L8.25 12ZM16.2803 5.03033C16.5732 4.73744 16.5732 4.26256 16.2803 3.96967C15.9874 3.67678 15.5126 3.67678 15.2197 3.96967L16.2803 5.03033ZM16.2803 18.9697L8.78033 11.4697L7.71967 12.5303L15.2197 20.0303L16.2803 18.9697ZM8.78033 12.5303L16.2803 5.03033L15.2197 3.96967L7.71967 11.4697L8.78033 12.5303Z" fill="#202020"/>
</g>
</svg>
