<svg width="24" height="24" viewBox="0 0 24 24" fill="none" xmlns="http://www.w3.org/2000/svg">
<path d="M8.78033 3.96967C8.48744 3.67678 8.01256 3.67678 7.71967 3.96967C7.42678 4.26256 7.42678 4.73744 7.71967 5.03033L8.78033 3.96967ZM15.75 12L16.2803 12.5303C16.5732 12.2374 16.5732 11.7626 16.2803 11.4697L15.75 12ZM7.71967 18.9697C7.42678 19.2626 7.42678 19.7374 7.71967 20.0303C8.01256 20.3232 8.48744 20.3232 8.78033 20.0303L7.71967 18.9697ZM7.71967 5.03033L15.2197 12.5303L16.2803 11.4697L8.78033 3.96967L7.71967 5.03033ZM15.2197 11.4697L7.71967 18.9697L8.78033 20.0303L16.2803 12.5303L15.2197 11.4697Z" fill="#202020"/>
</svg>
