<svg width="20" height="21" viewBox="0 0 20 21" fill="none" xmlns="http://www.w3.org/2000/svg">
<path d="M5 4.25C4.33696 4.25 3.70107 4.51339 3.23223 4.98223C2.76339 5.45107 2.5 6.08696 2.5 6.75V7.00125L10 11.04L17.5 7.0025V6.75C17.5 6.08696 17.2366 5.45107 16.7678 4.98223C16.2989 4.51339 15.663 4.25 15 4.25H5ZM17.5 8.42125L10.2963 12.3C10.2052 12.349 10.1034 12.3747 10 12.3747C9.89659 12.3747 9.7948 12.349 9.70375 12.3L2.5 8.42125V14.25C2.5 14.913 2.76339 15.5489 3.23223 16.0178C3.70107 16.4866 4.33696 16.75 5 16.75H15C15.663 16.75 16.2989 16.4866 16.7678 16.0178C17.2366 15.5489 17.5 14.913 17.5 14.25V8.42125Z" fill="#185CFF"/>
</svg>
