<svg width="20" height="21" viewBox="0 0 20 21" fill="none" xmlns="http://www.w3.org/2000/svg">
<path d="M11.445 18.68C13.6238 16.7625 17.5 12.845 17.5 9.25C17.5 7.26088 16.7098 5.35322 15.3033 3.9467C13.8968 2.54018 11.9891 1.75 10 1.75C8.01088 1.75 6.10322 2.54018 4.6967 3.9467C3.29018 5.35322 2.5 7.26088 2.5 9.25C2.5 12.845 6.375 16.7625 8.555 18.68C8.95264 19.0349 9.467 19.2311 10 19.2311C10.533 19.2311 11.0474 19.0349 11.445 18.68ZM7.5 9.25C7.5 8.58696 7.76339 7.95107 8.23223 7.48223C8.70107 7.01339 9.33696 6.75 10 6.75C10.663 6.75 11.2989 7.01339 11.7678 7.48223C12.2366 7.95107 12.5 8.58696 12.5 9.25C12.5 9.91304 12.2366 10.5489 11.7678 11.0178C11.2989 11.4866 10.663 11.75 10 11.75C9.33696 11.75 8.70107 11.4866 8.23223 11.0178C7.76339 10.5489 7.5 9.91304 7.5 9.25Z" fill="#185CFF"/>
</svg>
