<svg width="156" height="52" viewBox="0 0 156 52" fill="none" xmlns="http://www.w3.org/2000/svg">
<path d="M1.68 21V3.72H8.532C9.7 3.72 10.656 3.956 11.4 4.428C12.152 4.892 12.708 5.488 13.068 6.216C13.436 6.944 13.62 7.696 13.62 8.472C13.62 9.424 13.392 10.232 12.936 10.896C12.488 11.56 11.876 12.008 11.1 12.24V11.64C12.188 11.888 13.012 12.404 13.572 13.188C14.14 13.972 14.424 14.864 14.424 15.864C14.424 16.888 14.228 17.784 13.836 18.552C13.444 19.32 12.86 19.92 12.084 20.352C11.316 20.784 10.364 21 9.228 21H1.68ZM4.608 18.276H8.868C9.372 18.276 9.824 18.176 10.224 17.976C10.624 17.768 10.936 17.48 11.16 17.112C11.392 16.736 11.508 16.292 11.508 15.78C11.508 15.316 11.408 14.9 11.208 14.532C11.008 14.164 10.716 13.872 10.332 13.656C9.948 13.432 9.488 13.32 8.952 13.32H4.608V18.276ZM4.608 10.62H8.496C8.912 10.62 9.284 10.54 9.612 10.38C9.94 10.22 10.2 9.984 10.392 9.672C10.584 9.36 10.68 8.976 10.68 8.52C10.68 7.92 10.488 7.42 10.104 7.02C9.72 6.62 9.184 6.42 8.496 6.42H4.608V10.62ZM22.4726 21.36C21.1606 21.36 20.0086 21.076 19.0166 20.508C18.0246 19.94 17.2486 19.152 16.6886 18.144C16.1366 17.136 15.8606 15.976 15.8606 14.664C15.8606 13.248 16.1326 12.02 16.6766 10.98C17.2206 9.932 17.9766 9.12 18.9446 8.544C19.9126 7.968 21.0326 7.68 22.3046 7.68C23.6486 7.68 24.7886 7.996 25.7246 8.628C26.6686 9.252 27.3686 10.136 27.8246 11.28C28.2806 12.424 28.4526 13.772 28.3406 15.324H25.4726V14.268C25.4646 12.86 25.2166 11.832 24.7286 11.184C24.2406 10.536 23.4726 10.212 22.4246 10.212C21.2406 10.212 20.3606 10.58 19.7846 11.316C19.2086 12.044 18.9206 13.112 18.9206 14.52C18.9206 15.832 19.2086 16.848 19.7846 17.568C20.3606 18.288 21.2006 18.648 22.3046 18.648C23.0166 18.648 23.6286 18.492 24.1406 18.18C24.6606 17.86 25.0606 17.4 25.3406 16.8L28.1966 17.664C27.7006 18.832 26.9326 19.74 25.8926 20.388C24.8606 21.036 23.7206 21.36 22.4726 21.36ZM18.0086 15.324V13.14H26.9246V15.324H18.0086ZM29.5781 21V18.576C30.0501 18.664 30.4141 18.656 30.6701 18.552C30.9261 18.44 31.1181 18.232 31.2461 17.928C31.3741 17.624 31.4861 17.22 31.5821 16.716C31.7101 16.004 31.8221 15.184 31.9181 14.256C32.0221 13.328 32.1101 12.336 32.1821 11.28C32.2621 10.224 32.3341 9.144 32.3981 8.04H41.9381V21H39.0581V10.752H34.9421C34.9021 11.272 34.8541 11.856 34.7981 12.504C34.7421 13.144 34.6821 13.792 34.6181 14.448C34.5541 15.104 34.4821 15.728 34.4021 16.32C34.3301 16.904 34.2541 17.404 34.1741 17.82C33.9901 18.756 33.7261 19.496 33.3821 20.04C33.0461 20.584 32.5741 20.932 31.9661 21.084C31.3581 21.244 30.5621 21.216 29.5781 21ZM43.8694 21V18.576C44.3414 18.664 44.7054 18.656 44.9614 18.552C45.2174 18.44 45.4094 18.232 45.5374 17.928C45.6654 17.624 45.7774 17.22 45.8734 16.716C46.0014 16.004 46.1134 15.184 46.2094 14.256C46.3134 13.328 46.4014 12.336 46.4734 11.28C46.5534 10.224 46.6254 9.144 46.6894 8.04H56.2294V21H53.3494V10.752H49.2334C49.1934 11.272 49.1454 11.856 49.0894 12.504C49.0334 13.144 48.9734 13.792 48.9094 14.448C48.8454 15.104 48.7734 15.728 48.6934 16.32C48.6214 16.904 48.5454 17.404 48.4654 17.82C48.2814 18.756 48.0174 19.496 47.6734 20.04C47.3374 20.584 46.8654 20.932 46.2574 21.084C45.6494 21.244 44.8534 21.216 43.8694 21ZM59.3366 21L59.3606 8.04H62.2886V14.28L67.0286 8.04H70.6406L65.6126 14.52L71.0726 21H67.2446L62.2886 14.76V21H59.3366ZM77.5243 21.36C76.2283 21.36 75.0963 21.068 74.1283 20.484C73.1603 19.9 72.4083 19.096 71.8723 18.072C71.3443 17.04 71.0803 15.856 71.0803 14.52C71.0803 13.16 71.3523 11.968 71.8963 10.944C72.4403 9.92 73.1963 9.12 74.1643 8.544C75.1323 7.968 76.2523 7.68 77.5243 7.68C78.8283 7.68 79.9643 7.972 80.9323 8.556C81.9003 9.14 82.6523 9.948 83.1883 10.98C83.7243 12.004 83.9923 13.184 83.9923 14.52C83.9923 15.864 83.7203 17.052 83.1763 18.084C82.6403 19.108 81.8883 19.912 80.9203 20.496C79.9523 21.072 78.8203 21.36 77.5243 21.36ZM77.5243 18.648C78.6763 18.648 79.5323 18.264 80.0923 17.496C80.6523 16.728 80.9323 15.736 80.9323 14.52C80.9323 13.264 80.6483 12.264 80.0803 11.52C79.5123 10.768 78.6603 10.392 77.5243 10.392C76.7483 10.392 76.1083 10.568 75.6043 10.92C75.1083 11.264 74.7403 11.748 74.5003 12.372C74.2603 12.988 74.1403 13.704 74.1403 14.52C74.1403 15.776 74.4243 16.78 74.9923 17.532C75.5683 18.276 76.4123 18.648 77.5243 18.648ZM86.3722 21V8.04H88.7482L93.3922 16.992L98.0482 8.04H100.412V21H97.6522V13.86L93.9682 21H92.8282L89.1442 13.86V21H86.3722Z" fill="#181818"/>
<path d="M5 46.24C4.20533 46.24 3.53333 46.04 2.984 45.64C2.43467 45.2347 2.01867 44.688 1.736 44C1.45333 43.3067 1.312 42.5307 1.312 41.672C1.312 40.7973 1.45333 40.0187 1.736 39.336C2.024 38.648 2.44533 38.1067 3 37.712C3.55467 37.3173 4.23733 37.12 5.048 37.12C5.83733 37.12 6.51467 37.32 7.08 37.72C7.64533 38.12 8.07733 38.664 8.376 39.352C8.68 40.04 8.832 40.8133 8.832 41.672C8.832 42.536 8.68 43.312 8.376 44C8.072 44.688 7.63467 45.2347 7.064 45.64C6.49333 46.04 5.80533 46.24 5 46.24ZM1.112 49.84V37.36H2.168V43.864H2.296V49.84H1.112ZM4.88 45.144C5.48267 45.144 5.984 44.992 6.384 44.688C6.784 44.384 7.08267 43.9707 7.28 43.448C7.48267 42.92 7.584 42.328 7.584 41.672C7.584 41.0213 7.48533 40.4347 7.288 39.912C7.09067 39.3893 6.78933 38.976 6.384 38.672C5.984 38.368 5.47467 38.216 4.856 38.216C4.25333 38.216 3.752 38.3627 3.352 38.656C2.95733 38.9493 2.66133 39.3573 2.464 39.88C2.26667 40.3973 2.168 40.9947 2.168 41.672C2.168 42.3387 2.26667 42.936 2.464 43.464C2.66133 43.9867 2.96 44.3973 3.36 44.696C3.76 44.9947 4.26667 45.144 4.88 45.144ZM14.0848 46.24C13.2421 46.24 12.5114 46.0533 11.8928 45.68C11.2794 45.3067 10.8021 44.7813 10.4608 44.104C10.1194 43.4267 9.94875 42.632 9.94875 41.72C9.94875 40.776 10.1168 39.96 10.4528 39.272C10.7888 38.584 11.2608 38.0533 11.8688 37.68C12.4821 37.3067 13.2048 37.12 14.0368 37.12C14.8901 37.12 15.6181 37.3173 16.2208 37.712C16.8234 38.1013 17.2794 38.6613 17.5888 39.392C17.8981 40.1227 18.0394 40.9947 18.0128 42.008H16.8128V41.592C16.7914 40.472 16.5488 39.6267 16.0848 39.056C15.6261 38.4853 14.9541 38.2 14.0688 38.2C13.1408 38.2 12.4288 38.5013 11.9328 39.104C11.4421 39.7067 11.1968 40.5653 11.1968 41.68C11.1968 42.768 11.4421 43.6133 11.9328 44.216C12.4288 44.8133 13.1301 45.112 14.0368 45.112C14.6554 45.112 15.1941 44.9707 15.6528 44.688C16.1168 44.4 16.4821 43.9867 16.7488 43.448L17.8448 43.872C17.5034 44.624 16.9994 45.208 16.3328 45.624C15.6714 46.0347 14.9221 46.24 14.0848 46.24ZM10.7808 42.008V41.024H17.3808V42.008H10.7808ZM19.3858 46V37.36H20.4338L23.8018 44.432L27.1778 37.36H28.2178V46H27.0818V39.872L24.1778 46H23.4338L20.5298 39.872V46H19.3858ZM33.9043 46.24C33.0456 46.24 32.3123 46.0453 31.7043 45.656C31.0963 45.2667 30.6296 44.728 30.3043 44.04C29.9789 43.352 29.8163 42.5627 29.8163 41.672C29.8163 40.7653 29.9816 39.9707 30.3123 39.288C30.6429 38.6053 31.1123 38.0747 31.7203 37.696C32.3336 37.312 33.0616 37.12 33.9043 37.12C34.7683 37.12 35.5043 37.3147 36.1123 37.704C36.7256 38.088 37.1923 38.624 37.5123 39.312C37.8376 39.9947 38.0003 40.7813 38.0003 41.672C38.0003 42.5787 37.8376 43.376 37.5123 44.064C37.1869 44.7467 36.7176 45.28 36.1043 45.664C35.4909 46.048 34.7576 46.24 33.9043 46.24ZM33.9043 45.112C34.8643 45.112 35.5789 44.7947 36.0483 44.16C36.5176 43.52 36.7523 42.6907 36.7523 41.672C36.7523 40.6267 36.5149 39.7947 36.0403 39.176C35.5709 38.5573 34.8589 38.248 33.9043 38.248C33.2589 38.248 32.7256 38.3947 32.3043 38.688C31.8883 38.976 31.5763 39.3787 31.3683 39.896C31.1656 40.408 31.0643 41 31.0643 41.672C31.0643 42.712 31.3043 43.5467 31.7843 44.176C32.2643 44.8 32.9709 45.112 33.9043 45.112ZM39.597 46V37.36H40.773V41.112H45.645V37.36H46.821V46H45.645V42.24H40.773V46H39.597ZM51.2421 46V38.448H48.1781V37.36H55.4821V38.448H52.4181V46H51.2421ZM62.9386 46.24C62.08 46.24 61.3413 46.04 60.7226 45.64C60.104 45.2347 59.632 44.648 59.3066 43.88L60.4906 43.528C60.7093 44.0453 61.024 44.44 61.4346 44.712C61.8506 44.9787 62.3493 45.112 62.9306 45.112C63.784 45.112 64.44 44.848 64.8986 44.32C65.3626 43.7867 65.632 43.0747 65.7066 42.184H61.8426V41.176H65.7066C65.6426 40.3067 65.384 39.6027 64.9306 39.064C64.4773 38.52 63.8186 38.248 62.9546 38.248C62.3786 38.248 61.8693 38.3893 61.4266 38.672C60.9893 38.9547 60.6666 39.3573 60.4586 39.88L59.3066 39.512C59.552 38.7707 59.9973 38.1867 60.6426 37.76C61.2933 37.3333 62.0666 37.12 62.9626 37.12C63.8053 37.12 64.528 37.312 65.1306 37.696C65.7333 38.0747 66.1946 38.608 66.5146 39.296C66.8346 39.9787 66.9946 40.776 66.9946 41.688C66.9946 42.5947 66.832 43.3893 66.5066 44.072C66.1866 44.7547 65.7253 45.288 65.1226 45.672C64.52 46.0507 63.792 46.24 62.9386 46.24ZM67.79 46V44.968C68.11 45.0267 68.3527 45.0133 68.518 44.928C68.6887 44.8373 68.814 44.688 68.894 44.48C68.974 44.2667 69.0407 44.0027 69.094 43.688C69.1793 43.1653 69.2567 42.5893 69.326 41.96C69.3953 41.3307 69.4567 40.6373 69.51 39.88C69.5687 39.1173 69.6273 38.2773 69.686 37.36H75.558V46H74.39V38.488H70.774C70.7367 39.0533 70.694 39.616 70.646 40.176C70.598 40.736 70.5473 41.2747 70.494 41.792C70.446 42.304 70.3927 42.776 70.334 43.208C70.2753 43.64 70.214 44.0133 70.15 44.328C70.054 44.8027 69.926 45.1813 69.766 45.464C69.6113 45.7467 69.3793 45.9333 69.07 46.024C68.7607 46.1147 68.334 46.1067 67.79 46ZM81.2891 46.24C80.4465 46.24 79.7158 46.0533 79.0971 45.68C78.4838 45.3067 78.0065 44.7813 77.6651 44.104C77.3238 43.4267 77.1531 42.632 77.1531 41.72C77.1531 40.776 77.3211 39.96 77.6571 39.272C77.9931 38.584 78.4651 38.0533 79.0731 37.68C79.6865 37.3067 80.4091 37.12 81.2411 37.12C82.0945 37.12 82.8225 37.3173 83.4251 37.712C84.0278 38.1013 84.4838 38.6613 84.7931 39.392C85.1025 40.1227 85.2438 40.9947 85.2171 42.008H84.0171V41.592C83.9958 40.472 83.7531 39.6267 83.2891 39.056C82.8305 38.4853 82.1585 38.2 81.2731 38.2C80.3451 38.2 79.6331 38.5013 79.1371 39.104C78.6465 39.7067 78.4011 40.5653 78.4011 41.68C78.4011 42.768 78.6465 43.6133 79.1371 44.216C79.6331 44.8133 80.3345 45.112 81.2411 45.112C81.8598 45.112 82.3985 44.9707 82.8571 44.688C83.3211 44.4 83.6865 43.9867 83.9531 43.448L85.0491 43.872C84.7078 44.624 84.2038 45.208 83.5371 45.624C82.8758 46.0347 82.1265 46.24 81.2891 46.24ZM77.9851 42.008V41.024H84.5851V42.008H77.9851ZM86.8245 46L86.8325 37.36H88.0165V41.52L91.8725 37.36H93.4405L89.3925 41.68L93.9685 46H92.2565L88.0165 41.84V46H86.8245ZM96.954 46V38.448H93.89V37.36H101.194V38.448H98.13V46H96.954ZM106.439 46.24C105.645 46.24 104.973 46.04 104.423 45.64C103.874 45.2347 103.458 44.688 103.175 44C102.893 43.3067 102.751 42.5307 102.751 41.672C102.751 40.7973 102.893 40.0187 103.175 39.336C103.463 38.648 103.885 38.1067 104.439 37.712C104.994 37.3173 105.677 37.12 106.487 37.12C107.277 37.12 107.954 37.32 108.519 37.72C109.085 38.12 109.517 38.664 109.815 39.352C110.119 40.04 110.271 40.8133 110.271 41.672C110.271 42.536 110.119 43.312 109.815 44C109.511 44.688 109.074 45.2347 108.503 45.64C107.933 46.04 107.245 46.24 106.439 46.24ZM102.551 49.84V37.36H103.607V43.864H103.735V49.84H102.551ZM106.319 45.144C106.922 45.144 107.423 44.992 107.823 44.688C108.223 44.384 108.522 43.9707 108.719 43.448C108.922 42.92 109.023 42.328 109.023 41.672C109.023 41.0213 108.925 40.4347 108.727 39.912C108.53 39.3893 108.229 38.976 107.823 38.672C107.423 38.368 106.914 38.216 106.295 38.216C105.693 38.216 105.191 38.3627 104.791 38.656C104.397 38.9493 104.101 39.3573 103.903 39.88C103.706 40.3973 103.607 40.9947 103.607 41.672C103.607 42.3387 103.706 42.936 103.903 43.464C104.101 43.9867 104.399 44.3973 104.799 44.696C105.199 44.9947 105.706 45.144 106.319 45.144ZM115.476 46.24C114.617 46.24 113.884 46.0453 113.276 45.656C112.668 45.2667 112.201 44.728 111.876 44.04C111.551 43.352 111.388 42.5627 111.388 41.672C111.388 40.7653 111.553 39.9707 111.884 39.288C112.215 38.6053 112.684 38.0747 113.292 37.696C113.905 37.312 114.633 37.12 115.476 37.12C116.34 37.12 117.076 37.3147 117.684 37.704C118.297 38.088 118.764 38.624 119.084 39.312C119.409 39.9947 119.572 40.7813 119.572 41.672C119.572 42.5787 119.409 43.376 119.084 44.064C118.759 44.7467 118.289 45.28 117.676 45.664C117.063 46.048 116.329 46.24 115.476 46.24ZM115.476 45.112C116.436 45.112 117.151 44.7947 117.62 44.16C118.089 43.52 118.324 42.6907 118.324 41.672C118.324 40.6267 118.087 39.7947 117.612 39.176C117.143 38.5573 116.431 38.248 115.476 38.248C114.831 38.248 114.297 38.3947 113.876 38.688C113.46 38.976 113.148 39.3787 112.94 39.896C112.737 40.408 112.636 41 112.636 41.672C112.636 42.712 112.876 43.5467 113.356 44.176C113.836 44.8 114.543 45.112 115.476 45.112ZM121.169 46V37.36H122.345V41.112H127.217V37.36H128.393V46H127.217V42.24H122.345V46H121.169ZM137.334 37.36V46H136.19V39.272L131.454 46H130.462V37.36H131.606V44.032L136.35 37.36H137.334ZM139.411 46L139.419 37.36H140.603V41.52L144.459 37.36H146.027L141.979 41.68L146.555 46H144.843L140.603 41.84V46H139.411ZM154.061 37.36V46H152.917V39.272L148.181 46H147.189V37.36H148.333V44.032L153.077 37.36H154.061Z" fill="#525252"/>
</svg>
