<svg width="20" height="21" viewBox="0 0 20 21" fill="none" xmlns="http://www.w3.org/2000/svg">
<path d="M8.44421 9.27986L9.78671 8.04986C10.1538 7.71288 10.4118 7.2739 10.5276 6.78925C10.6434 6.3046 10.6118 5.79639 10.4367 5.32986L9.86421 3.80111C9.65032 3.23038 9.22689 2.76267 8.68018 2.49326C8.13346 2.22385 7.5046 2.17302 6.92171 2.35111C4.77671 3.00736 3.12796 5.00111 3.63546 7.36861C3.96921 8.92611 4.60796 10.8811 5.81796 12.9611C7.03046 15.0461 8.41546 16.5861 9.60296 17.6686C11.3955 19.2999 13.958 18.8924 15.6067 17.3549C16.0487 16.9428 16.3168 16.3777 16.3566 15.7747C16.3963 15.1718 16.2046 14.5763 15.8205 14.1099L14.7705 12.8349C14.4538 12.4493 14.029 12.1673 13.5507 12.0252C13.0724 11.8831 12.5626 11.8873 12.0867 12.0374L10.3517 12.5836C9.90365 12.1212 9.511 11.6082 9.18171 11.0549C8.86388 10.4953 8.61618 9.89873 8.44421 9.27861V9.27986Z" fill="#185CFF"/>
</svg>
